<?xml version="1.0" encoding="iso-8859-1"?>
<!-- Generator: Adobe Illustrator 19.0.0, SVG Export Plug-In . SVG Version: 6.00 Build 0)  -->
<svg version="1.1" id="Layer_1" xmlns="http://www.w3.org/2000/svg" xmlns:xlink="http://www.w3.org/1999/xlink" x="0px" y="0px"
	 viewBox="0 0 496 496" style="enable-background:new 0 0 496 496;" xml:space="preserve">
<g>
	<g>
		<g>
			<path d="M80,384c-17.648,0-32,14.352-32,32s14.352,32,32,32s32-14.352,32-32S97.648,384,80,384z M80,432c-8.824,0-16-7.176-16-16
				c0-8.824,7.176-16,16-16c8.816,0,16,7.176,16,16C96,424.824,88.816,432,80,432z"/>
			<path d="M176,384c-17.648,0-32,14.352-32,32s14.352,32,32,32s32-14.352,32-32S193.648,384,176,384z M176,432
				c-8.824,0-16-7.176-16-16c0-8.824,7.176-16,16-16c8.816,0,16,7.176,16,16C192,424.824,184.816,432,176,432z"/>
			<path d="M272,384c-17.648,0-32,14.352-32,32s14.352,32,32,32s32-14.352,32-32S289.648,384,272,384z M272,432
				c-8.824,0-16-7.176-16-16c0-8.824,7.176-16,16-16c8.816,0,16,7.176,16,16C288,424.824,280.816,432,272,432z"/>
			<path d="M336,416c0,17.648,14.352,32,32,32s32-14.352,32-32s-14.352-32-32-32S336,398.352,336,416z M368,400
				c8.816,0,16,7.176,16,16c0,8.824-7.184,16-16,16c-8.824,0-16-7.176-16-16C352,407.176,359.176,400,368,400z"/>
			<path d="M496,128v-16h-48v16h-88V89.688l-34.568-8.272C314.96,33.928,273.128,0,224,0s-90.96,33.928-101.432,81.416L88,89.688
				V248c0,13.232,10.768,24,24,24h8v16H88v48h-8c-44.112,0-80,35.888-80,80s35.888,80,80,80h288c44.112,0,80-35.888,80-80
				s-35.888-80-80-80h-8v-48h-32v-16h32v-48h88v16h48v-16h-32v-16h32v-16h-32v-32h32v-16h-32v-16H496z M308.528,80H240
				c-8.824,0-16-7.184-16-16s7.176-16,16-16h51.88C299.448,57.208,305.168,68.04,308.528,80z M375.992,368v-15.448
				c5.88,0.736,11.536,2.224,16.816,4.456l-7.744,13.416l13.856,8l7.704-13.336c4.632,3.528,8.76,7.656,12.28,12.28l-13.336,7.704
				l8,13.856l13.416-7.744c2.232,5.28,3.72,10.936,4.456,16.816H416v16h15.44c-0.736,5.888-2.224,11.536-4.456,16.816l-13.416-7.744
				l-8,13.856l13.336,7.704c-3.52,4.632-7.648,8.752-12.272,12.28l-7.704-13.336l-13.856,8l7.744,13.416
				c-5.28,2.232-10.936,3.72-16.816,4.456V464h-16v16h-16v-16h-16v16h-16v-16h-16v16h-16v-16h-16v16h-16v-16h-16v16h-16v-16h-16v16
				h-16v-16h-16v16h-16v-16h-16v16h-16v-16h-16v16H88v-16H72v15.448c-5.888-0.736-11.536-2.224-16.816-4.456l7.752-13.416l-13.856-8
				l-7.704,13.336c-4.632-3.52-8.752-7.648-12.28-12.28l13.336-7.704l-8-13.856l-13.416,7.744c-2.232-5.28-3.72-10.928-4.464-16.816
				H32v-16H16.552c0.736-5.888,2.224-11.536,4.456-16.816l13.416,7.744l8-13.856l-13.336-7.704c3.52-4.632,7.648-8.752,12.28-12.28
				l7.704,13.336l13.856-8l-7.752-13.416c5.28-2.232,10.936-3.72,16.816-4.456V368h16v-16h16v16h16v-16h16v16h16v-16h16v16h16v-16
				h16v16h16v-16h16v16h16v-16h16v16h16v-16h16v16h16v-16h16v16h16v-16h16v16H375.992z M344,304v32H104v-32H344z M136,288v-16h176
				v16H136z M344,256H112c-4.416,0-8-3.584-8-8V102.312l32.448-7.768l0.88-5.216C144.48,46.832,180.92,16,224,16
				c18.784,0,36.296,5.864,50.68,16H240c-17.648,0-32,14.352-32,32s14.352,32,32,32h77.624L344,102.312V128H240
				c-26.472,0-48,21.528-48,48s21.528,48,48,48h104V256z M448,160v40v8H240c-17.648,0-32-14.352-32-32s14.352-32,32-32h176v48h16
				v-48h16V160z"/>
			<path d="M240,152c-13.232,0-24,10.768-24,24s10.768,24,24,24s24-10.768,24-24S253.232,152,240,152z M240,184
				c-4.416,0-8-3.584-8-8s3.584-8,8-8s8,3.584,8,8S244.416,184,240,184z"/>
		</g>
	</g>
</g>
<g>
</g>
<g>
</g>
<g>
</g>
<g>
</g>
<g>
</g>
<g>
</g>
<g>
</g>
<g>
</g>
<g>
</g>
<g>
</g>
<g>
</g>
<g>
</g>
<g>
</g>
<g>
</g>
<g>
</g>
</svg>
